<svg>
    <symbol id="logo" width="100%" height="100%" viewBox="0 0 275 46" fill="none" xmlns="http://www.w3.org/2000/svg">
        <g>
            <path d="M75.4733 13.4812L84.9988 2.34699V1.05767H89.4858V31.9474H84.9988V5.52391L74.2431 18.1119L63.5494 5.48203V31.9474H61.4608V3.00811L59.8206 1.05469H65.0657L75.4733 13.4812Z" fill="currentColor"/>
            <path d="M114.723 1.05762V3.0948H100.566V12.464H114.292V14.4982H100.566V29.9132H114.723V31.9503H96.0819V1.05762H114.723Z" fill="currentColor"/>
            <path d="M121.033 16.1195C121.033 18.2105 121.372 20.1041 122.048 21.8003C122.723 23.4964 123.691 24.9473 124.948 26.1528C126.204 27.3584 127.738 28.2857 129.547 28.9379C131.355 29.59 133.388 29.9131 135.641 29.9131H140.128V11.9434H144.615V31.9473H133.798C132.172 31.9473 130.609 31.8007 129.107 31.5105C127.606 31.2204 126.198 30.7836 124.889 30.2033C123.579 29.6229 122.39 28.896 121.325 28.0225C120.26 27.149 119.346 26.1259 118.579 24.9473C117.815 23.7716 117.222 22.4464 116.806 20.9806C116.39 19.5118 116.18 17.8934 116.18 16.1195C116.18 14.6387 116.375 13.2178 116.764 11.8597C117.154 10.5016 117.7 9.24215 118.405 8.07847C119.107 6.9148 119.953 5.86181 120.945 4.9195C121.936 3.97719 123.033 3.17249 124.243 2.49941C125.452 1.82634 126.753 1.3118 128.145 0.952829C129.538 0.593855 130.992 0.411377 132.509 0.411377C134.871 0.411377 137.069 0.806255 139.105 1.596C141.14 2.38574 142.943 3.46565 144.512 4.83574L143.365 6.37335C142.736 5.8319 142.043 5.32634 141.285 4.85668C140.527 4.38702 139.721 3.97719 138.866 3.63018C138.013 3.28317 137.128 3.01395 136.214 2.8195C135.299 2.62506 134.376 2.52933 133.45 2.52933C131.523 2.54429 129.797 2.89428 128.266 3.57932C126.735 4.26437 125.434 5.21266 124.364 6.4242C123.29 7.63574 122.47 9.06565 121.894 10.7139C121.319 12.3652 121.033 14.1661 121.033 16.1195Z" fill="currentColor"/>
            <path d="M175.464 31.9503H170.732L169.05 27.9417H152.398L150.757 31.9503H148.279L159.445 5.02722L157.805 1.06055H162.599L175.464 31.9503ZM153.235 25.9046H168.209L160.652 7.95584L153.235 25.9046Z" fill="currentColor"/>
            <path d="M189.559 1.05762C191.293 1.05762 192.792 1.21317 194.054 1.52428C195.317 1.83539 196.391 2.24822 197.27 2.75975C198.152 3.27129 198.86 3.86061 199.4 4.52471C199.94 5.18881 200.356 5.87385 200.651 6.57984C200.946 7.28582 201.143 7.98882 201.244 8.68882C201.344 9.38882 201.397 10.035 201.397 10.6303C201.397 11.3931 201.276 12.2427 201.04 13.185C200.801 14.1273 200.37 15.0427 199.751 15.9281C199.128 16.8136 198.279 17.6153 197.199 18.3273C196.119 19.0422 194.748 19.5508 193.081 19.8529L201.89 31.9444H196.4L187.794 20.167H184.476V31.9444H179.989V1.05762H189.559ZM184.479 3.0948V18.1149H187.039C188.5 18.1149 189.821 17.9803 191.004 17.711C192.184 17.4418 193.196 17.0051 194.037 16.4038C194.877 15.8025 195.521 15.0187 195.972 14.0555C196.423 13.0922 196.647 11.9256 196.647 10.5555C196.647 9.00591 196.373 7.74053 195.827 6.76531C195.282 5.7901 194.562 5.03027 193.665 4.49181C192.771 3.95036 191.75 3.5854 190.603 3.39096C189.455 3.19651 188.281 3.10078 187.078 3.10078H184.479V3.0948Z" fill="currentColor"/>
            <path d="M221.802 32.5516C220.301 32.5516 218.855 32.3572 217.469 31.9713C216.082 31.5824 214.784 31.041 213.578 30.341C212.368 29.641 211.271 28.8004 210.279 27.8162C209.288 26.832 208.439 25.7431 207.728 24.5435C207.017 23.3469 206.468 22.0576 206.079 20.6786C205.689 19.2995 205.495 17.8636 205.495 16.3679C205.495 14.8991 205.689 13.4811 206.079 12.1081C206.468 10.738 207.017 9.45463 207.728 8.26403C208.439 7.07343 209.288 5.98455 210.279 5.00335C211.271 4.02215 212.368 3.18156 213.578 2.49053C214.787 1.79951 216.082 1.25805 217.469 0.869161C218.855 0.483264 220.298 0.288818 221.802 0.288818C223.292 0.288818 224.726 0.480272 226.103 0.860187C227.484 1.2401 228.773 1.78156 229.974 2.48156C231.174 3.18156 232.272 4.02216 233.263 5.00635C234.254 5.99053 235.101 7.07643 235.803 8.26703C236.505 9.45763 237.054 10.738 237.443 12.111C237.832 13.4811 238.027 14.9021 238.027 16.3709C238.027 17.8666 237.832 19.3025 237.443 20.6816C237.054 22.0606 236.508 23.3469 235.803 24.5465C235.101 25.7431 234.254 26.835 233.263 27.8192C232.272 28.8033 231.177 29.6439 229.974 30.3439C228.773 31.0439 227.481 31.5884 226.103 31.9743C224.726 32.3572 223.292 32.5516 221.802 32.5516ZM221.802 30.5145C223.661 30.5145 225.301 30.1495 226.729 29.4136C228.156 28.6807 229.354 27.6786 230.325 26.4072C231.295 25.1358 232.027 23.6371 232.525 21.917C233.024 20.194 233.275 18.3452 233.275 16.3679C233.275 14.4055 233.03 12.5657 232.537 10.8516C232.045 9.13754 231.319 7.65079 230.354 6.39139C229.392 5.13199 228.192 4.14181 226.758 3.41489C225.324 2.68797 223.672 2.32601 221.799 2.32601C219.899 2.32601 218.239 2.68797 216.811 3.41489C215.383 4.14181 214.188 5.13199 213.226 6.39139C212.265 7.65079 211.539 9.13754 211.055 10.8516C210.571 12.5657 210.327 14.4055 210.327 16.3679C210.327 18.3452 210.571 20.194 211.064 21.917C211.557 23.6401 212.282 25.1358 213.247 26.4072C214.209 27.6786 215.409 28.6807 216.843 29.4136C218.28 30.1495 219.932 30.5145 221.802 30.5145Z" fill="currentColor"/>
            <path d="M267.055 31.9503H263.613L246.733 7.95584V31.9503H244.644V4.98533L241.918 1.06055H247.408L264.943 26.0302V1.06055H267.052V31.9503H267.055Z" fill="currentColor"/>
            <path d="M108.652 40.6016C108.74 40.476 108.867 40.2995 109.041 40.0572C109.103 40.3802 109.174 40.6315 109.195 40.8918C109.239 41.4691 109.251 42.0495 109.289 42.6298C109.304 42.8392 109.342 43.0486 109.389 43.255C109.434 43.4525 109.558 43.5512 109.776 43.5482C110.354 43.5392 110.929 43.5452 111.507 43.5452C111.507 43.5213 111.507 43.4973 111.51 43.4734C111.342 43.4345 111.171 43.4046 111.006 43.3597C110.637 43.255 110.454 43.0008 110.528 42.6208C110.572 42.3965 110.661 42.1661 110.788 41.9807C111.03 41.6307 111.478 41.6636 111.646 42.0585C111.77 42.3426 111.802 42.6717 111.853 42.9858C111.879 43.1593 111.859 43.3418 111.859 43.596C112.236 43.4973 112.575 43.4076 112.929 43.3119C112.758 42.9918 112.567 42.917 112.313 43.0935C112.204 42.576 112.407 42.2858 112.879 42.2798C113.13 42.2768 113.393 42.2828 113.634 42.3486C114.047 42.4623 114.121 42.8033 113.829 43.1174C113.752 43.2012 113.664 43.276 113.578 43.3567C113.835 43.5631 114.679 43.6319 115.505 43.5213C115.396 42.7405 115.292 41.9567 115.174 41.179C115.145 40.9905 115.198 40.7632 114.971 40.6375C114.938 40.6196 114.95 40.4879 114.962 40.4132C114.994 40.2247 115.042 40.0362 115.071 39.8896C115.269 40.0183 115.446 40.129 115.62 40.2486C115.664 40.2785 115.735 40.3473 115.726 40.3743C115.667 40.5567 115.809 40.811 115.537 40.9217C115.511 40.9337 115.514 41.0503 115.525 41.1161C115.635 41.867 115.753 42.6178 115.853 43.3717C115.882 43.602 115.859 43.8384 115.859 44.1046C115.717 44.1046 115.573 44.1046 115.431 44.1046C114.997 44.1046 114.567 44.0926 114.133 44.1076C113.755 44.1196 113.434 44.0179 113.18 43.7008C112.746 44.0508 112.248 44.1196 111.717 44.1076C111.053 44.0926 110.386 44.1046 109.723 44.1046C109.401 44.1046 109.239 44.0149 109.165 43.6918C109.077 43.3119 109.035 42.923 108.994 42.5341C108.953 42.1362 108.956 41.7354 108.9 41.3405C108.858 41.1161 108.749 40.8948 108.652 40.6016ZM111.561 42.9649C111.454 42.7555 111.387 42.5819 111.277 42.4384C111.23 42.3755 111.047 42.3307 111.012 42.3666C110.941 42.4384 110.87 42.5969 110.906 42.6717C110.953 42.7794 111.086 42.8631 111.198 42.923C111.277 42.9648 111.389 42.9469 111.561 42.9649Z" fill="currentColor"/>
            <path d="M103.507 41.8669C104.079 42.564 103.876 43.3447 103.929 44.1105C103.823 44.1105 103.746 44.1105 103.672 44.1105C102.684 44.1105 101.696 44.1105 100.708 44.1075C100.578 44.1075 100.445 44.0986 100.318 44.0716C99.439 43.8892 99.1027 43.2669 99.4272 42.4174C99.498 42.2319 99.6013 42.0614 99.6898 41.8849C99.7163 41.8939 99.7429 41.9028 99.7694 41.9088C99.7635 41.9716 99.7665 42.0375 99.7488 42.0973C99.7016 42.2618 99.6249 42.4204 99.5954 42.5879C99.5393 42.908 99.6573 43.1772 99.9523 43.3058C100.203 43.4165 100.477 43.5182 100.746 43.5242C101.696 43.5511 102.643 43.5332 103.625 43.5332C103.643 43.2011 103.634 42.8751 103.404 42.6268C103.262 42.4742 103.262 42.3605 103.354 42.202C103.407 42.1152 103.442 42.0135 103.507 41.8669Z" fill="currentColor"/>
            <path d="M108.015 42.175C108.351 42.4682 108.552 42.8122 108.56 43.258C108.566 43.5481 108.587 43.8413 108.555 44.1255C108.531 44.3349 108.46 44.5592 108.351 44.7357C108.221 44.9421 108.038 45.1216 107.855 45.2862C107.36 45.7379 106.799 45.8306 106.183 45.5524C105.967 45.4537 105.746 45.3639 105.528 45.2712C105.528 45.2413 105.531 45.2114 105.531 45.1815C105.61 45.1755 105.69 45.1575 105.767 45.1635C106.085 45.1875 106.416 45.2802 106.72 45.2293C107.386 45.1127 107.876 44.6939 108.201 44.0986C108.407 43.7187 108.295 43.3357 108.035 43.0545C107.749 42.7404 107.873 42.4862 108.015 42.175Z" fill="currentColor"/>
            <path d="M104.658 44.2273C104.658 44.0179 104.669 43.8473 104.655 43.6798C104.578 42.7824 104.516 41.882 104.404 40.9905C104.36 40.6315 104.516 40.4012 104.711 40.0781C104.767 40.5268 104.826 40.9038 104.861 41.2837C104.923 41.9538 104.982 42.6238 105.02 43.2969C105.041 43.632 104.894 43.97 104.658 44.2273Z" fill="currentColor"/>
            <path d="M116.699 40.1589C116.788 41.203 116.879 42.247 116.959 43.291C116.986 43.632 116.841 43.9252 116.629 44.2303C116.605 44.1555 116.584 44.1166 116.581 44.0777C116.508 43.0786 116.443 42.0795 116.36 41.0833C116.322 40.6495 116.357 40.4611 116.699 40.1589Z" fill="currentColor"/>
            <path d="M101.592 41.3316C101.663 41.1611 101.734 40.9936 101.814 40.7961C102.011 40.8949 102.185 40.9846 102.383 41.0833C102.3 41.2508 102.224 41.4064 102.141 41.5709C101.944 41.4812 101.764 41.4034 101.584 41.3226L101.592 41.3316Z" fill="currentColor"/>
            <path d="M101.587 41.3256C101.534 41.5021 101.48 41.6786 101.421 41.882C101.2 41.7654 101.026 41.6756 100.831 41.5739C100.92 41.4034 101 41.2568 101.088 41.0923C101.265 41.176 101.43 41.2538 101.595 41.3316C101.593 41.3316 101.587 41.3256 101.587 41.3256Z" fill="currentColor"/>
            <path d="M111 40.6226C111.103 40.449 111.192 40.3055 111.295 40.1379C111.44 40.2396 111.569 40.3294 111.72 40.4371C111.628 40.5956 111.54 40.7452 111.437 40.9217C111.289 40.823 111.154 40.7302 111 40.6226Z" fill="currentColor"/>
            <path d="M110.971 40.6255C110.876 40.796 110.797 40.9396 110.705 41.1101C110.561 41.0084 110.428 40.9157 110.283 40.817C110.378 40.6494 110.463 40.5028 110.563 40.3293C110.705 40.434 110.838 40.5298 110.971 40.6255Z" fill="currentColor"/>
            <path d="M62.8001 40.6763C63.0125 40.6763 63.1954 40.6942 63.3517 40.7331C63.5081 40.772 63.6379 40.8228 63.747 40.8857C63.8562 40.9485 63.9417 41.0203 64.0096 41.1011C64.0745 41.1818 64.1276 41.2656 64.163 41.3523C64.1984 41.4391 64.222 41.5258 64.2367 41.6096C64.2485 41.6964 64.2544 41.7741 64.2544 41.8489C64.2544 41.9416 64.2397 42.0463 64.2102 42.163C64.1807 42.2797 64.1276 42.3904 64.0509 42.4981C63.9742 42.6057 63.8709 42.7045 63.7382 42.7912C63.6054 42.878 63.4373 42.9408 63.2337 42.9797L64.3134 44.4634H63.6408L62.5847 43.0186H62.1776V44.4634H61.6289V40.6763H62.8001ZM62.1776 40.9275V42.7703H62.4903C62.6703 42.7703 62.8325 42.7523 62.9771 42.7194C63.1216 42.6865 63.2455 42.6327 63.3488 42.5579C63.452 42.4831 63.5317 42.3874 63.5848 42.2707C63.6408 42.154 63.6674 42.0104 63.6674 41.8399C63.6674 41.6485 63.6349 41.4959 63.5671 41.3763C63.4992 41.2566 63.4107 41.1639 63.3016 41.0981C63.1924 41.0322 63.0656 40.9874 62.9269 40.9634C62.7853 40.9395 62.6408 40.9275 62.4962 40.9275H62.1776Z" fill="currentColor"/>
            <path d="M67.7118 40.6763V40.9246H65.9772V42.0733H67.6616V42.3216H65.9772V44.2122H67.7118V44.4605H65.4255V40.6733H67.7118V40.6763Z" fill="currentColor"/>
            <path d="M71.6648 44.4664H71.0836L70.8772 43.9758H68.8357L68.6351 44.4664H68.3313L69.7001 41.1639L69.4995 40.6763H70.0866L71.6648 44.4664ZM68.939 43.7246H70.7739L69.8476 41.5228L68.939 43.7246Z" fill="currentColor"/>
            <path d="M73.2194 44.2151H74.7563V44.4634H72.6677V40.6763H73.2164V44.2151H73.2194Z" fill="currentColor"/>
            <path d="M79.677 40.6763V40.9246H77.9424V42.0733H79.6269V42.3216H77.9424V44.2122H79.677V44.4605H77.3907V40.6733H79.677V40.6763Z" fill="currentColor"/>
            <path d="M81.4264 40.5986C81.5355 40.5986 81.6329 40.6046 81.7155 40.6136C81.7981 40.6226 81.8748 40.6375 81.9485 40.6555C82.0223 40.6734 82.0931 40.6943 82.1668 40.7183C82.2376 40.7422 82.3202 40.7691 82.4087 40.7961L82.3999 41.0623C82.335 41.0414 82.273 41.0174 82.2052 40.9995C82.1403 40.9785 82.0724 40.9606 82.0016 40.9456C81.9308 40.9307 81.8541 40.9187 81.7745 40.9097C81.6948 40.9008 81.6063 40.8948 81.5149 40.8948C81.4736 40.8948 81.4234 40.9008 81.3703 40.9157C81.3143 40.9307 81.2612 40.9516 81.211 40.9845C81.1609 41.0174 81.1166 41.0593 81.0842 41.1132C81.0488 41.167 81.0311 41.2298 81.0311 41.3106C81.0311 41.3824 81.0606 41.4691 81.1166 41.5679C81.1727 41.6666 81.27 41.7862 81.4028 41.9328L81.8453 42.4174C81.9426 42.5191 82.037 42.6208 82.1255 42.7196C82.214 42.8183 82.2937 42.917 82.3615 43.0127C82.4294 43.1085 82.4825 43.2042 82.5208 43.2969C82.5621 43.3926 82.5798 43.4854 82.5798 43.5751C82.5798 43.7546 82.5474 43.9042 82.4825 44.0298C82.4176 44.1555 82.335 44.2572 82.2317 44.332C82.1285 44.4097 82.0134 44.4666 81.8807 44.5025C81.7509 44.5384 81.6181 44.5563 81.4883 44.5563C81.3733 44.5563 81.2671 44.5503 81.1697 44.5384C81.0724 44.5264 80.978 44.5055 80.8865 44.4815C80.798 44.4576 80.7125 44.4277 80.6299 44.3888C80.5473 44.3529 80.4676 44.311 80.385 44.2632L80.4175 43.9879C80.4824 44.0179 80.5502 44.0508 80.6181 44.0807C80.6859 44.1136 80.7567 44.1405 80.8275 44.1644C80.8983 44.1884 80.9721 44.2093 81.0458 44.2243C81.1196 44.2392 81.1933 44.2482 81.2671 44.2482C81.5119 44.2482 81.6978 44.1973 81.8246 44.0926C81.9515 43.9909 82.0134 43.8414 82.0134 43.6469C82.0134 43.5871 82.0016 43.5273 81.9751 43.4674C81.9485 43.4076 81.9131 43.3418 81.8689 43.279C81.8246 43.2132 81.7715 43.1473 81.7096 43.0755C81.6476 43.0067 81.5827 42.932 81.5149 42.8572L81.0665 42.3636C80.9514 42.223 80.857 42.1033 80.7803 42.0016C80.7036 41.9029 80.6417 41.8132 80.5945 41.7354C80.5473 41.6576 80.5148 41.5858 80.4971 41.52C80.4765 41.4542 80.4676 41.3854 80.4676 41.3166C80.4676 41.179 80.4942 41.0653 80.5502 40.9726C80.6063 40.8828 80.6771 40.808 80.7685 40.7542C80.86 40.7003 80.9603 40.6615 81.0753 40.6375C81.1904 40.6106 81.3084 40.5986 81.4264 40.5986Z" fill="currentColor"/>
            <path d="M85.6625 40.6763V40.9245H84.7569V44.4634H84.2082V40.9245H83.2966V40.6763H85.6625Z" fill="currentColor"/>
            <path d="M89.4297 44.4664H88.8485L88.642 43.9758H86.6006L86.4 44.4664H86.0962L87.465 41.1639L87.2644 40.6763H87.8514L89.4297 44.4664ZM86.7068 43.7246H88.5417L87.6154 41.5228L86.7068 43.7246Z" fill="currentColor"/>
            <path d="M92.1998 40.6763V40.9245H91.2941V44.4634H90.7454V40.9245H89.8339V40.6763H92.1998Z" fill="currentColor"/>
            <path d="M95.4359 40.6763V40.9246H93.7013V42.0733H95.3858V42.3216H93.7013V44.2122H95.4359V44.4605H93.1497V40.6733H95.4359V40.6763Z" fill="currentColor"/>
            <path d="M96.8637 44.4666H96.3534V44.0598H96.8637V44.4666Z" fill="currentColor"/>
            <path d="M118.307 44.4666H117.797V44.0598H118.307V44.4666Z" fill="currentColor"/>
            <path d="M123.647 44.287H123.066L122.859 43.7964H120.818L120.617 44.287H120.313L121.682 40.9844L121.481 40.4968H122.068L123.647 44.287ZM120.921 43.5451H122.756L121.83 41.3434L120.921 43.5451Z" fill="currentColor"/>
            <path d="M124.667 40.4998H126.942V40.8079H125.201V44.2869H124.667V40.4998Z" fill="currentColor"/>
            <path d="M130.16 40.4998V40.7481H128.426V41.8968H130.107V42.1451H128.426V44.0357H130.16V44.284H127.874V40.4998H130.16Z" fill="currentColor"/>
            <path d="M133.886 44.2869H133.334V42.1451H131.65V44.284H131.098V40.4998H131.65V41.8968H133.334V40.4998H133.886V44.2869Z" fill="currentColor"/>
            <path d="M137.226 40.4998V40.7481H136.32V44.2869H135.768V40.7481H134.857V40.4998H137.226Z" fill="currentColor"/>
            <path d="M140.01 40.4192C140.302 40.4192 140.571 40.4671 140.822 40.5628C141.069 40.6585 141.291 40.7931 141.482 40.9606L141.341 41.1491C141.264 41.0833 141.179 41.0205 141.084 40.9636C140.99 40.9068 140.892 40.8559 140.789 40.8141C140.686 40.7722 140.577 40.7393 140.465 40.7153C140.353 40.6914 140.24 40.6794 140.125 40.6794C139.881 40.6794 139.665 40.7243 139.473 40.8141C139.285 40.9038 139.125 41.0265 138.996 41.182C138.866 41.3376 138.768 41.52 138.701 41.7294C138.633 41.9388 138.6 42.1632 138.6 42.4025C138.6 42.6359 138.633 42.8572 138.701 43.0636C138.765 43.2701 138.863 43.4525 138.993 43.6081C139.122 43.7636 139.279 43.8893 139.468 43.979C139.656 44.0688 139.875 44.1166 140.119 44.1166C140.237 44.1166 140.355 44.1047 140.476 44.0807C140.597 44.0568 140.712 44.0209 140.825 43.976C140.937 43.9312 141.043 43.8743 141.143 43.8085C141.243 43.7427 141.332 43.6679 141.409 43.5812L141.553 43.7666C141.356 43.9581 141.125 44.1047 140.866 44.2123C140.603 44.32 140.32 44.3739 140.013 44.3739C139.827 44.3739 139.647 44.35 139.479 44.3051C139.308 44.2572 139.149 44.1914 139.001 44.1047C138.854 44.0179 138.718 43.9162 138.597 43.7966C138.476 43.6769 138.373 43.5453 138.285 43.3987C138.199 43.2521 138.131 43.0965 138.084 42.929C138.037 42.7615 138.013 42.588 138.013 42.4055C138.013 42.223 138.037 42.0465 138.084 41.879C138.131 41.7085 138.199 41.55 138.285 41.4034C138.37 41.2568 138.473 41.1222 138.597 41.0025C138.718 40.8829 138.854 40.7782 139.001 40.6944C139.149 40.6077 139.308 40.5418 139.479 40.494C139.645 40.4431 139.824 40.4192 140.01 40.4192Z" fill="currentColor"/>
            <path d="M144.701 40.4998V40.7481H143.795V44.2869H143.244V40.7481H142.332V40.4998H144.701Z" fill="currentColor"/>
            <path d="M145.671 44.2869V40.4998H146.84C147.04 40.4998 147.214 40.5177 147.359 40.5566C147.503 40.5925 147.621 40.6463 147.716 40.7181C147.81 40.7869 147.878 40.8707 147.922 40.9694C147.966 41.0681 147.99 41.1788 147.99 41.2985C147.99 41.3792 147.975 41.457 147.946 41.5318C147.916 41.6096 147.869 41.6784 147.804 41.7412C147.739 41.804 147.651 41.8609 147.542 41.9057C147.433 41.9536 147.297 41.9865 147.138 42.0074V42.0134C147.533 42.0703 147.825 42.1959 148.014 42.3904C148.202 42.5848 148.297 42.8391 148.297 43.1562C148.297 43.3147 148.27 43.4613 148.22 43.5989C148.17 43.7365 148.087 43.8562 147.975 43.9579C147.863 44.0596 147.716 44.1404 147.533 44.2002C147.35 44.26 147.126 44.2869 146.86 44.2869H145.671ZM146.22 40.7481V41.8968H146.598C146.713 41.8968 146.822 41.8848 146.919 41.8639C147.017 41.8429 147.105 41.81 147.176 41.7621C147.25 41.7143 147.306 41.6544 147.347 41.5767C147.388 41.4989 147.409 41.4062 147.409 41.2955C147.409 41.1908 147.391 41.104 147.353 41.0352C147.315 40.9634 147.261 40.9096 147.191 40.8647C147.12 40.8228 147.034 40.7929 146.934 40.775C146.834 40.757 146.722 40.7481 146.595 40.7481H146.22ZM146.22 42.1451V44.0357H146.716C146.872 44.0357 147.011 44.0147 147.129 43.9758C147.25 43.9339 147.35 43.8771 147.433 43.7963C147.515 43.7156 147.577 43.6228 147.618 43.5122C147.663 43.4015 147.683 43.2728 147.683 43.1322C147.683 42.9617 147.654 42.8151 147.592 42.6895C147.53 42.5639 147.444 42.4621 147.329 42.3814C147.217 42.3006 147.079 42.2408 146.919 42.2019C146.757 42.163 146.58 42.1421 146.382 42.1421H146.22V42.1451Z" fill="currentColor"/>
            <path d="M151.288 44.3588C151.105 44.3588 150.925 44.3349 150.757 44.287C150.589 44.2392 150.427 44.1733 150.279 44.0866C150.132 43.9998 149.996 43.8981 149.875 43.7785C149.754 43.6588 149.648 43.5242 149.562 43.3776C149.474 43.231 149.409 43.0725 149.359 42.905C149.312 42.7345 149.288 42.561 149.288 42.3755C149.288 42.196 149.312 42.0225 149.359 41.852C149.406 41.6845 149.474 41.5259 149.562 41.3793C149.648 41.2328 149.754 41.1011 149.875 40.9785C149.996 40.8558 150.132 40.7541 150.279 40.6704C150.427 40.5866 150.586 40.5178 150.757 40.4729C150.928 40.4251 151.105 40.4011 151.288 40.4011C151.471 40.4011 151.645 40.4251 151.816 40.4699C151.984 40.5178 152.144 40.5836 152.291 40.6674C152.439 40.7541 152.574 40.8558 152.695 40.9755C152.816 41.0952 152.92 41.2298 153.008 41.3763C153.097 41.5229 153.161 41.6785 153.209 41.849C153.256 42.0165 153.279 42.19 153.279 42.3725C153.279 42.555 153.256 42.7315 153.209 42.902C153.161 43.0695 153.094 43.228 153.008 43.3746C152.922 43.5212 152.819 43.6558 152.695 43.7755C152.574 43.8951 152.439 43.9998 152.291 44.0836C152.144 44.1704 151.984 44.2362 151.816 44.284C151.645 44.3349 151.471 44.3588 151.288 44.3588ZM151.288 44.1105C151.515 44.1105 151.716 44.0657 151.893 43.9759C152.067 43.8862 152.214 43.7635 152.332 43.608C152.45 43.4524 152.542 43.2669 152.604 43.0575C152.666 42.8451 152.695 42.6208 152.695 42.3785C152.695 42.1362 152.666 41.9118 152.604 41.7024C152.545 41.493 152.453 41.3105 152.335 41.155C152.217 40.9994 152.07 40.8798 151.896 40.79C151.722 40.7003 151.518 40.6554 151.288 40.6554C151.055 40.6554 150.852 40.7003 150.678 40.79C150.503 40.8798 150.356 40.9994 150.238 41.155C150.12 41.3105 150.031 41.493 149.972 41.7024C149.913 41.9118 149.884 42.1392 149.884 42.3785C149.884 42.6208 149.913 42.8481 149.975 43.0575C150.034 43.2699 150.126 43.4524 150.244 43.608C150.362 43.7635 150.509 43.8862 150.686 43.9759C150.855 44.0657 151.058 44.1105 151.288 44.1105Z" fill="currentColor"/>
            <path d="M158.967 44.2869H158.415V42.1451H156.731V44.284H156.179V40.4998H156.731V41.8968H158.415V40.4998H158.967V44.2869Z" fill="currentColor"/>
            <path d="M162.607 40.4998V40.7481H160.873V41.8968H162.554V42.1451H160.873V44.0357H162.607V44.284H160.321V40.4998H162.607Z" fill="currentColor"/>
            <path d="M163.354 44.8913V44.0267H163.616C163.708 43.8173 163.784 43.578 163.846 43.3028C163.911 43.0306 163.961 42.7374 164.003 42.4293C164.044 42.1212 164.074 41.8011 164.091 41.475C164.112 41.146 164.121 40.8199 164.121 40.4968H166.189V44.0238H166.625V44.8883H166.289V44.284H163.693V44.8883H163.354V44.8913ZM165.655 44.0267V40.787H164.398C164.398 40.9635 164.392 41.149 164.38 41.3464C164.369 41.5438 164.354 41.7413 164.333 41.9447C164.313 42.1451 164.289 42.3456 164.262 42.546C164.236 42.7464 164.203 42.9349 164.168 43.1173C164.133 43.2968 164.097 43.4673 164.059 43.6229C164.02 43.7785 163.979 43.9131 163.938 44.0297H165.655V44.0267Z" fill="currentColor"/>
            <path d="M167.861 44.2869V40.4998H169.03C169.23 40.4998 169.404 40.5177 169.549 40.5566C169.693 40.5925 169.811 40.6463 169.906 40.7181C170 40.7869 170.068 40.8707 170.112 40.9694C170.156 41.0681 170.18 41.1788 170.18 41.2985C170.18 41.3792 170.165 41.457 170.136 41.5318C170.106 41.6096 170.059 41.6784 169.994 41.7412C169.929 41.804 169.841 41.8609 169.732 41.9057C169.622 41.9536 169.487 41.9865 169.327 42.0074V42.0134C169.723 42.0703 170.015 42.1959 170.204 42.3904C170.392 42.5848 170.487 42.8391 170.487 43.1562C170.487 43.3147 170.46 43.4613 170.41 43.5989C170.36 43.7365 170.277 43.8562 170.165 43.9579C170.053 44.0596 169.906 44.1404 169.723 44.2002C169.54 44.26 169.316 44.2869 169.05 44.2869H167.861ZM168.413 40.7481V41.8968H168.791C168.906 41.8968 169.015 41.8848 169.112 41.8639C169.209 41.8429 169.298 41.81 169.369 41.7621C169.443 41.7143 169.499 41.6544 169.54 41.5767C169.581 41.4989 169.602 41.4062 169.602 41.2955C169.602 41.1908 169.584 41.104 169.546 41.0352C169.507 40.9634 169.454 40.9096 169.384 40.8647C169.313 40.8228 169.227 40.7929 169.127 40.775C169.027 40.757 168.914 40.7481 168.788 40.7481H168.413ZM168.413 42.1451V44.0357H168.909C169.065 44.0357 169.204 44.0147 169.322 43.9758C169.443 43.9339 169.543 43.8771 169.625 43.7963C169.708 43.7186 169.77 43.6228 169.811 43.5122C169.856 43.4015 169.876 43.2728 169.876 43.1322C169.876 42.9617 169.847 42.8151 169.785 42.6895C169.723 42.5639 169.637 42.4621 169.522 42.3814C169.41 42.3006 169.271 42.2408 169.112 42.2019C168.95 42.163 168.773 42.1421 168.575 42.1421H168.413V42.1451Z" fill="currentColor"/>
            <path d="M171.649 40.4998H172.183V43.2818L174.139 40.9575V40.4998H174.67V44.2869H174.139V41.463L172.183 43.7874V44.2899H171.649V40.4998Z" fill="currentColor"/>
            <path d="M178.325 42.1869V44.2869H177.791V42.1869H177.325L176.514 44.2869H175.93L176.921 41.8429L176.065 40.4998H176.458L177.34 41.8788H177.791V40.4998H178.325V41.8788H178.776L179.658 40.4998H180.045L179.189 41.8369L180.181 44.2869H179.596L178.785 42.1869H178.325Z" fill="currentColor"/>
            <path d="M181.44 40.4998H181.974V43.2818L183.93 40.9575V40.4998H184.461V44.2869H183.93V41.463L181.974 43.7874V44.2899H181.44V40.4998Z" fill="currentColor"/>
            <path d="M187.641 42.0224L188.809 40.6583V40.4998H189.361V44.2869H188.809V41.0472L187.491 42.5908L186.178 41.0412V44.2869H185.921V40.7391L185.721 40.4998H186.364L187.641 42.0224Z" fill="currentColor"/>
            <path d="M192.544 44.3588C192.361 44.3588 192.181 44.3349 192.013 44.287C191.845 44.2392 191.683 44.1733 191.535 44.0866C191.388 43.9998 191.252 43.8981 191.131 43.7785C191.01 43.6588 190.904 43.5242 190.818 43.3776C190.73 43.231 190.665 43.0725 190.615 42.905C190.568 42.7345 190.544 42.561 190.544 42.3755C190.544 42.196 190.568 42.0225 190.615 41.852C190.662 41.6845 190.73 41.5259 190.818 41.3793C190.904 41.2328 191.01 41.1011 191.131 40.9785C191.252 40.8558 191.388 40.7541 191.535 40.6704C191.683 40.5866 191.842 40.5178 192.013 40.4729C192.184 40.4251 192.361 40.4011 192.544 40.4011C192.727 40.4011 192.901 40.4251 193.072 40.4699C193.24 40.5178 193.4 40.5836 193.547 40.6674C193.695 40.7541 193.83 40.8558 193.951 40.9755C194.072 41.0952 194.175 41.2298 194.264 41.3763C194.352 41.5229 194.417 41.6785 194.464 41.849C194.512 42.0165 194.535 42.19 194.535 42.3725C194.535 42.555 194.512 42.7315 194.464 42.902C194.417 43.0695 194.349 43.228 194.264 43.3746C194.178 43.5212 194.075 43.6558 193.951 43.7755C193.83 43.8951 193.695 43.9998 193.547 44.0836C193.4 44.1704 193.24 44.2362 193.072 44.284C192.904 44.3349 192.727 44.3588 192.544 44.3588ZM192.544 44.1105C192.771 44.1105 192.972 44.0657 193.149 43.9759C193.323 43.8862 193.47 43.7635 193.588 43.608C193.706 43.4524 193.798 43.2669 193.86 43.0575C193.922 42.8451 193.951 42.6208 193.951 42.3785C193.951 42.1362 193.922 41.9118 193.86 41.7024C193.801 41.493 193.709 41.3105 193.591 41.155C193.473 40.9994 193.326 40.8798 193.152 40.79C192.978 40.7003 192.774 40.6554 192.544 40.6554C192.311 40.6554 192.107 40.7003 191.933 40.79C191.759 40.8798 191.612 40.9994 191.494 41.155C191.376 41.3105 191.287 41.493 191.228 41.7024C191.169 41.9118 191.14 42.1392 191.14 42.3785C191.14 42.6208 191.169 42.8481 191.231 43.0575C191.29 43.2699 191.382 43.4524 191.5 43.608C191.618 43.7635 191.765 43.8862 191.942 43.9759C192.113 44.0657 192.317 44.1105 192.544 44.1105Z" fill="currentColor"/>
            <path d="M197.532 40.4192C197.824 40.4192 198.093 40.4671 198.344 40.5628C198.591 40.6585 198.813 40.7931 199.004 40.9606L198.863 41.1491C198.786 41.0833 198.701 41.0205 198.606 40.9636C198.512 40.9068 198.414 40.8559 198.311 40.8141C198.208 40.7722 198.099 40.7393 197.987 40.7153C197.875 40.6914 197.763 40.6794 197.647 40.6794C197.403 40.6794 197.187 40.7243 196.996 40.8141C196.807 40.9038 196.647 41.0265 196.518 41.182C196.388 41.3376 196.29 41.52 196.223 41.7294C196.155 41.9388 196.122 42.1632 196.122 42.4025C196.122 42.6359 196.155 42.8572 196.223 43.0636C196.288 43.2701 196.385 43.4525 196.515 43.6081C196.644 43.7636 196.801 43.8893 196.99 43.979C197.178 44.0688 197.397 44.1166 197.642 44.1166C197.76 44.1166 197.878 44.1047 197.999 44.0807C198.119 44.0568 198.235 44.0209 198.347 43.976C198.459 43.9312 198.565 43.8743 198.665 43.8085C198.766 43.7427 198.854 43.6679 198.931 43.5812L199.075 43.7666C198.878 43.9581 198.648 44.1047 198.388 44.2123C198.125 44.32 197.842 44.3739 197.535 44.3739C197.35 44.3739 197.17 44.35 197.001 44.3051C196.83 44.2572 196.671 44.1914 196.524 44.1047C196.376 44.0179 196.24 43.9162 196.119 43.7966C195.998 43.6769 195.895 43.5453 195.807 43.3987C195.721 43.2521 195.653 43.0965 195.606 42.929C195.559 42.7615 195.535 42.588 195.535 42.4055C195.535 42.223 195.559 42.0465 195.606 41.879C195.653 41.7085 195.721 41.55 195.807 41.4034C195.892 41.2568 195.995 41.1222 196.119 41.0025C196.24 40.8829 196.376 40.7782 196.524 40.6944C196.671 40.6077 196.83 40.5418 197.001 40.494C197.167 40.4431 197.347 40.4192 197.532 40.4192Z" fill="currentColor"/>
            <path d="M202.22 40.4998V40.7481H201.314V44.2869H200.763V40.7481H199.851V40.4998H202.22Z" fill="currentColor"/>
            <path d="M203.191 40.4998H203.725V43.2818L205.68 40.9575V40.4998H206.211V44.2869H205.68V41.463L203.725 43.7874V44.2899H203.191V40.4998Z" fill="currentColor"/>
            <path d="M274.427 34.5979V43.6889H212.601V41.5769H272.309V36.4017L274.427 34.5979Z" fill="var(--color-darkblue)"/>
            <path d="M7.30756 6.77441C7.30461 6.77441 7.30461 6.77441 7.29871 6.77441V12.7483C7.30166 12.7483 7.30166 12.7483 7.30756 12.7483C12.6087 12.7483 16.9216 17.1218 16.9216 22.5035C16.9216 27.8791 12.6087 32.2526 7.30756 32.2526C7.30461 32.2526 7.30461 32.2526 7.29871 32.2526V38.2266C7.30166 38.2266 7.30166 38.2266 7.30756 38.2266C15.8567 38.2266 22.8157 31.1757 22.8157 22.5005C22.8157 13.8312 15.8567 6.77441 7.30756 6.77441Z" fill="currentColor"/>
            <path d="M19.9337 0.294922H7.30176V3.49877C7.30471 3.49877 7.30471 3.49877 7.31061 3.49877C17.6415 3.49877 26.0461 12.0244 26.0461 22.5005C26.0461 32.9765 17.6445 41.4992 7.31061 41.4992C7.30766 41.4992 7.30766 41.4992 7.30176 41.4992V44.703H19.9425C27.5004 40.2637 32.5921 31.9744 32.5921 22.5005C32.5921 13.0265 27.4945 4.73424 19.9337 0.294922Z" fill="currentColor"/>
            <path d="M33.7396 0.294922H24.4028C30.9076 5.45817 35.0966 13.4932 35.0966 22.5005C35.0966 31.5077 30.9076 39.5368 24.4058 44.703H33.7425C38.6749 38.6723 41.6456 30.9334 41.6456 22.5005C41.6485 14.0706 38.6749 6.32569 33.7396 0.294922Z" fill="currentColor"/>
            <path d="M45.3597 0.294922V0.549197C45.3125 0.465437 45.2653 0.378683 45.2151 0.294922H37.4094C41.8993 6.52911 44.5484 14.2082 44.5484 22.5005C44.5484 30.7898 41.8993 38.4688 37.4094 44.703H45.2151C45.2653 44.6193 45.3125 44.5325 45.3597 44.4488V44.703H51.0945V0.294922H45.3597Z" fill="currentColor"/>
            <path d="M14.0248 22.5004C14.0248 26.2636 11.0187 29.3119 7.3076 29.3119C7.30465 29.3119 7.30465 29.3119 7.29875 29.3119C7.29285 29.3119 7.2958 29.3119 7.2899 29.3119C3.5788 29.3119 0.572754 26.2576 0.572754 22.4944C0.572754 18.7311 3.5788 15.6829 7.2899 15.6829C7.29285 15.6829 7.29285 15.6829 7.29875 15.6829C7.30465 15.6829 7.3017 15.6829 7.3076 15.6829C11.0187 15.6829 14.0248 18.7371 14.0248 22.5004Z" fill="var(--color-darkblue)"/>
        </g>
    </symbol>
    <symbol id="mail" width="100%" height="100%" viewBox="0 0 17 13" fill="none" xmlns="http://www.w3.org/2000/svg">
        <g>
            <path d="M0.5 2.13202L7.79592 8.14281L7.79708 8.14375C8.20474 8.47757 8.79114 8.47779 9.19904 8.14443C9.19931 8.1442 9.19959 8.14398 9.19986 8.14375L16.5 2.21259V11.5358C16.5 11.5949 16.452 11.6429 16.3928 11.6429H0.607154C0.54797 11.6429 0.5 11.5949 0.5 11.5358V2.13202Z" stroke="currentColor"/>
            <path d="M8.45446 6.35264L1.38763 0.5H15.6213L8.45446 6.35264Z" stroke="currentColor"/>
        </g>
    </symbol>
    <symbol id="heart" width="100%" height="100%" viewBox="0 0 27 24" fill="none" xmlns="http://www.w3.org/2000/svg">
        <g>
            <path d="M13.5 23.1317C13.1156 23.1317 12.745 22.9976 12.4562 22.754C11.3655 21.8355 10.3139 20.9725 9.38608 20.2111L9.38134 20.2072C6.6612 17.975 4.31226 16.0473 2.67791 14.1483C0.850958 12.0254 0 10.0126 0 7.81377C0 5.67738 0.760733 3.70644 2.14192 2.26373C3.53958 0.80397 5.45738 0 7.54265 0C9.10119 0 10.5285 0.474487 11.7849 1.41017C12.4189 1.88248 12.9936 2.46051 13.5 3.13475C14.0065 2.46051 14.581 1.88248 15.2153 1.41017C16.4716 0.474487 17.899 0 19.4575 0C21.5426 0 23.4606 0.80397 24.8582 2.26373C26.2394 3.70644 26.9999 5.67738 26.9999 7.81377C26.9999 10.0126 26.1492 12.0254 24.3222 14.1481C22.6879 16.0473 20.3392 17.9748 17.6194 20.2068C16.69 20.9693 15.6367 21.8338 14.5435 22.7544C14.2549 22.9976 13.8842 23.1317 13.5 23.1317ZM7.54265 1.52304C5.90438 1.52304 4.3994 2.15265 3.30454 3.29602C2.19342 4.45665 1.58141 6.06102 1.58141 7.81377C1.58141 9.66312 2.29518 11.3171 3.89554 13.1765C5.44234 14.9739 7.74308 16.862 10.407 19.0481L10.4119 19.0521C11.3432 19.8164 12.3989 20.6828 13.4977 21.608C14.6031 20.6811 15.6604 19.8132 16.5936 19.0477C19.2573 16.8616 21.5578 14.9739 23.1046 13.1765C24.7048 11.3171 25.4185 9.66312 25.4185 7.81377C25.4185 6.06102 24.8065 4.45665 23.6954 3.29602C22.6008 2.15265 21.0956 1.52304 19.4575 1.52304C18.2574 1.52304 17.1555 1.89041 16.1826 2.61484C15.3156 3.26071 14.7116 4.07718 14.3575 4.64847C14.1754 4.94225 13.8549 5.1176 13.5 5.1176C13.145 5.1176 12.8245 4.94225 12.6424 4.64847C12.2885 4.07718 11.6846 3.26071 10.8173 2.61484C9.84442 1.89041 8.74256 1.52304 7.54265 1.52304Z" fill="currentColor"/>
        </g>
    </symbol>
    <symbol id="telegram" width="100%" height="100%" viewBox="0 0 20 18" fill="none" xmlns="http://www.w3.org/2000/svg">
        <g>
            <path d="M16.2885 4.14311C16.2885 4.14314 16.2878 4.14317 16.2864 4.14311C16.2878 4.14305 16.2885 4.14308 16.2885 4.14311ZM8.09553 15.4951L8.09546 15.495L8.08863 15.5018C8.0837 15.5067 8.07885 15.5115 8.07409 15.5162L8.33206 11.8877L16.7016 4.37256C16.7021 4.37209 16.7026 4.37163 16.7032 4.37116C16.828 4.26028 16.9963 4.06868 17.006 3.8035C17.0186 3.45976 16.7729 3.26015 16.574 3.18977C16.3909 3.12497 16.1967 3.13607 16.0354 3.17254C15.8665 3.21071 15.6919 3.28562 15.5241 3.39582L5.18783 9.86343L0.871151 8.52077L0.870683 8.52062C0.685075 8.46309 0.57813 8.40042 0.524604 8.35633C0.536532 8.34265 0.553174 8.32562 0.576222 8.30543C0.670959 8.22244 0.839369 8.11841 1.10834 8.0139C1.10869 8.01377 1.10905 8.01363 1.10941 8.01349L18.8446 1.22346C18.8452 1.22321 18.8459 1.22297 18.8466 1.22272C19.14 1.11408 19.3011 1.1826 19.3681 1.24712C19.4386 1.31492 19.5596 1.52454 19.4657 2.01936L19.4528 2.07968L16.4353 16.2194C16.3358 16.6534 16.1885 16.7775 16.1156 16.8105C16.0462 16.8419 15.8736 16.8676 15.5277 16.6806L10.9556 13.3323L10.6176 13.0848L10.3147 13.3742L8.09553 15.4951Z" stroke="currentColor"/>
        </g>
    </symbol>
    <symbol id="viber" width="100%" height="100%" viewBox="0 0 20 20" fill="none" xmlns="http://www.w3.org/2000/svg">
        <g>
            <path fill-rule="evenodd" clip-rule="evenodd" d="M16.6329 3.34007C14.8788 1.58386 12.5459 0.616264 10.0606 0.615234C4.93934 0.615234 0.7714 4.78306 0.769341 9.90566C0.768654 11.5432 1.19643 13.1417 2.00954 14.5507L0.691406 19.3652L5.61683 18.0732C6.97398 18.8135 8.50189 19.2036 10.0568 19.2041H10.0607C15.1813 19.2041 19.3497 15.0359 19.3517 9.9131C19.3527 7.43042 18.3872 5.09617 16.6329 3.34007ZM10.0606 17.635H10.0574C8.67172 17.6344 7.31273 17.262 6.12689 16.5586L5.84502 16.3911L2.9222 17.1579L3.70235 14.3082L3.51867 14.016C2.74562 12.7865 2.33741 11.3654 2.3381 9.90623C2.3397 5.64846 5.80405 2.18445 10.0637 2.18445C12.1263 2.18513 14.0653 2.98943 15.5233 4.44912C16.9813 5.90881 17.7837 7.84904 17.783 9.91253C17.7812 14.1706 14.3171 17.635 10.0606 17.635ZM14.2965 11.8513C14.0644 11.735 12.923 11.1736 12.7101 11.096C12.4975 11.0185 12.3425 10.9799 12.1879 11.2122C12.0331 11.4445 11.5882 11.9675 11.4527 12.1224C11.3172 12.2773 11.182 12.2968 10.9498 12.1805C10.7176 12.0644 9.96959 11.8191 9.08279 11.0282C8.39271 10.4126 7.92682 9.6524 7.79132 9.42009C7.65605 9.18754 7.79018 9.07402 7.89317 8.9463C8.14449 8.63422 8.39614 8.30704 8.4735 8.1522C8.55098 7.99724 8.51219 7.86163 8.45405 7.74547C8.39614 7.62932 7.93186 6.48662 7.73845 6.02165C7.54985 5.56915 7.35862 5.63026 7.21603 5.62317C7.08076 5.61642 6.92592 5.61504 6.77108 5.61504C6.61636 5.61504 6.36482 5.67306 6.15196 5.90561C5.93921 6.13804 5.33954 6.6996 5.33954 7.84229C5.33954 8.98498 6.17141 10.0889 6.28745 10.2438C6.4035 10.3988 7.92453 12.7437 10.2533 13.7492C10.8072 13.9886 11.2395 14.1313 11.5768 14.2383C12.133 14.415 12.6389 14.39 13.039 14.3303C13.4851 14.2636 14.4124 13.7686 14.6061 13.2264C14.7995 12.6841 14.7995 12.2193 14.7413 12.1224C14.6834 12.0256 14.5286 11.9675 14.2965 11.8513Z" fill="currentColor"/>
        </g>
    </symbol>
    <symbol id="search" width="20" height="20" viewBox="0 0 20 20" fill="none" xmlns="http://www.w3.org/2000/svg">
        <g>
            <path fill-rule="evenodd" clip-rule="evenodd" d="M13.9939 12.3105L14.277 11.847C16.0024 9.02232 15.65 5.27847 13.2124 2.8368C10.3522 -0.0234561 5.69511 -0.0234561 2.83485 2.8368C-0.0255848 5.69724 -0.0251277 10.354 2.83453 13.21L2.83485 13.2103C5.27203 15.6475 9.01595 16.0007 11.8454 14.2746L12.3086 13.9921L17.2766 18.9601C17.7407 19.4243 18.498 19.4243 18.9622 18.9601C19.4264 18.4959 19.4264 17.7386 18.9622 17.2745L13.9939 12.3105ZM19.4499 16.7868C20.1834 17.5203 20.1834 18.7143 19.4499 19.4478C18.7164 20.1813 17.5224 20.1813 16.7889 19.4478L12.2046 14.8634C9.11166 16.7501 5.0163 16.3671 2.34719 13.698C-0.782396 10.5725 -0.782396 5.47873 2.34719 2.34914C5.47677 -0.780443 10.5705 -0.780443 13.7001 2.34914C16.3692 5.02233 16.7522 9.11768 14.8655 12.2065L19.4499 16.7868ZM12.5297 12.5307L12.5292 12.5312C10.0435 15.0169 6.00455 15.0177 3.52212 12.5312C1.03625 10.0453 1.03561 6.00602 3.52257 3.52363C6.00833 1.03835 10.0469 1.03771 12.5292 3.52407C15.0115 6.00636 15.0109 10.045 12.5297 12.5307ZM12.0416 4.01173C9.82885 1.79494 6.22657 1.79494 4.00978 4.01173C1.79299 6.22445 1.79299 9.82673 4.00978 12.0435C6.22249 14.2603 9.82478 14.2603 12.0416 12.0435C14.2543 9.82673 14.2543 6.22445 12.0416 4.01173Z" fill="currentColor"/>
        </g>
    </symbol>
    <symbol id="user" width="100%" height="100%" viewBox="0 0 24 24" fill="none" xmlns="http://www.w3.org/2000/svg">
        <g>
            <path d="M18.44,15.6a1,1,0,0,0-1.34-.19,9,9,0,0,1-10.2,0,1,1,0,0,0-1.34.19A7,7,0,0,0,4,20a1,1,0,0,0,1,1H19a1,1,0,0,0,1-1A7,7,0,0,0,18.44,15.6Z" style="fill: none; stroke: currentColor; stroke-linecap: round; stroke-linejoin: round; stroke-width: 2;"></path>
            <circle cx="12" cy="8" r="5" style="fill: none; stroke: currentColor; stroke-linecap: round; stroke-linejoin: round; stroke-width: 2;"></circle>
        </g>
    </symbol>
    <symbol id="enter" width="100%" height="100%" viewBox="0 0 96 96" fill="none" xmlns="http://www.w3.org/2000/svg">
        <g>
            <path d="M43.7578,61.7578a5.9994,5.9994,0,1,0,8.4844,8.4844l18-18a5.9979,5.9979,0,0,0,0-8.4844l-18-18a5.9994,5.9994,0,0,0-8.4844,8.4844L51.5156,42H6A6,6,0,0,0,6,54H51.5156Z" fill="currentColor"/>
            <path d="M90,0H30a5.9966,5.9966,0,0,0-6,6V18a6,6,0,0,0,12,0V12H84V84H36V78a6,6,0,0,0-12,0V90a5.9966,5.9966,0,0,0,6,6H90a5.9966,5.9966,0,0,0,6-6V6A5.9966,5.9966,0,0,0,90,0Z" fill="currentColor"/>
        </g>
    </symbol>
    <symbol id="arrow" width="100%" height="100%" viewBox="0 0 16 16" fill="none" xmlns="http://www.w3.org/2000/svg">
        <g>
            <line x1="0.646447" y1="15.6464" x2="14.8965" y2="1.39637" stroke="currentColor"/>
            <path d="M2.7417 1H15.0918V13.3501" stroke="currentColor"/>
        </g>
    </symbol>
    <symbol id="chat" width="100%" height="100%" viewBox="0 0 20 20" fill="none" xmlns="http://www.w3.org/2000/svg">
        <g>
            <path d="M11.875 3.75H4.375C4.03 3.75 3.75 4.03 3.75 4.375C3.75 4.72 4.03 5 4.375 5H11.875C12.22 5 12.5 4.72 12.5 4.375C12.5 4.03 12.22 3.75 11.875 3.75Z" fill="currentColor"/>
            <path d="M9.375 6.25H4.375C4.03 6.25 3.75 6.53 3.75 6.875C3.75 7.22 4.03 7.5 4.375 7.5H9.375C9.72 7.5 10 7.22 10 6.875C10 6.53 9.72 6.25 9.375 6.25Z" fill="currentColor"/>
            <path d="M13.75 0H2.5C1.12125 0 0 1.12125 0 2.5V15C0 15.2425 0.14 15.4637 0.36 15.5662C0.44375 15.605 0.535 15.625 0.625 15.625C0.76875 15.625 0.91125 15.575 1.025 15.48L4.60125 12.5H13.75C15.1287 12.5 16.25 11.3787 16.25 10V2.5C16.25 1.12125 15.1287 0 13.75 0ZM15 10C15 10.6888 14.44 11.25 13.75 11.25H4.375C4.22875 11.25 4.0875 11.3013 3.975 11.395L1.25 13.6662V2.5C1.25 1.81125 1.81 1.25 2.5 1.25H13.75C14.44 1.25 15 1.81125 15 2.5V10Z" fill="currentColor"/>
            <path d="M17.5 5C17.155 5 16.875 5.28 16.875 5.625C16.875 5.97 17.155 6.25 17.5 6.25C18.19 6.25 18.75 6.81125 18.75 7.5V18.0737L16.64 16.3863C16.53 16.2987 16.3912 16.25 16.25 16.25H7.5C6.81 16.25 6.25 15.6888 6.25 15V14.375C6.25 14.03 5.97 13.75 5.625 13.75C5.28 13.75 5 14.03 5 14.375V15C5 16.3787 6.12125 17.5 7.5 17.5H16.03L18.9838 19.8637C19.0975 19.9537 19.2362 20 19.375 20C19.4663 20 19.5588 19.98 19.6462 19.9388C19.8625 19.8338 20 19.615 20 19.375V7.5C20 6.12125 18.8787 5 17.5 5Z" fill="currentColor"/>
        </g>
    </symbol>
    <symbol id="fire" width="100%" height="100%" viewBox="0 0 16 20" fill="none" xmlns="http://www.w3.org/2000/svg">
        <g>
            <path d="M13.4931 7.59084C13.4392 7.52326 13.3738 7.53654 13.3395 7.55033C13.3108 7.56197 13.245 7.59916 13.2541 7.69236C13.2651 7.80427 13.2712 7.91838 13.2724 8.03154C13.2773 8.50099 13.0889 8.96092 12.7557 9.29338C12.4246 9.62369 11.9892 9.80166 11.5255 9.7965C10.8921 9.78841 10.3668 9.45806 10.0063 8.84115C9.70824 8.33103 9.83926 7.6731 9.97797 6.9765C10.0591 6.56877 10.1431 6.14713 10.1431 5.74584C10.1431 2.62127 8.04254 0.818611 6.79043 0.0221655C6.76453 0.00572021 6.73988 -6.10352e-05 6.71805 -6.10352e-05C6.68254 -6.10352e-05 6.65441 0.0152515 6.64055 0.0246265C6.61367 0.0428296 6.57066 0.084314 6.58449 0.157751C7.06309 2.69924 5.63559 4.22779 4.12426 5.84607C2.56645 7.51416 0.800781 9.40482 0.800781 12.8147C0.800781 16.7767 4.0241 20 7.98613 20C11.2483 20 14.1245 17.7256 14.9805 14.4692C15.5641 12.2487 14.9525 9.42029 13.4931 7.59084ZM8.16539 18.4663C7.17328 18.5115 6.22977 18.1557 5.5091 17.4667C4.79617 16.7849 4.38727 15.8336 4.38727 14.8565C4.38727 13.0228 5.08836 11.6767 6.97406 9.8897C7.00492 9.86045 7.03652 9.85119 7.06406 9.85119C7.08902 9.85119 7.11066 9.85881 7.12555 9.86595C7.15691 9.88107 7.20848 9.91849 7.20152 9.99943C7.1341 10.784 7.13527 11.4352 7.20496 11.9351C7.38309 13.2118 8.31773 14.0697 9.53082 14.0697C10.1256 14.0697 10.6921 13.8458 11.1261 13.4394C11.1764 13.3922 11.2327 13.3982 11.2542 13.4028C11.2828 13.409 11.321 13.4265 11.3411 13.4748C11.521 13.9092 11.6129 14.3703 11.6143 14.8453C11.6201 16.7564 10.0729 18.3808 8.16539 18.4663Z" fill="currentColor"/>
        </g>
    </symbol>
    <symbol id="location" width="100%" height="100%" viewBox="0 0 32 32" fill="none" xmlns="http://www.w3.org/2000/svg">
        <g>
            <path d="M16.114-0.011c-6.559 0-12.114 5.587-12.114 12.204 0 6.93 6.439 14.017 10.77 18.998 0.017 0.020 0.717 0.797 1.579 0.797h0.076c0.863 0 1.558-0.777 1.575-0.797 4.064-4.672 10-12.377 10-18.998 0-6.618-4.333-12.204-11.886-12.204zM16.515 29.849c-0.035 0.035-0.086 0.074-0.131 0.107-0.046-0.032-0.096-0.072-0.133-0.107l-0.523-0.602c-4.106-4.71-9.729-11.161-9.729-17.055 0-5.532 4.632-10.205 10.114-10.205 6.829 0 9.886 5.125 9.886 10.205 0 4.474-3.192 10.416-9.485 17.657zM16.035 6.044c-3.313 0-6 2.686-6 6s2.687 6 6 6 6-2.687 6-6-2.686-6-6-6zM16.035 16.044c-2.206 0-4.046-1.838-4.046-4.044s1.794-4 4-4c2.207 0 4 1.794 4 4 0.001 2.206-1.747 4.044-3.954 4.044z" fill="currentColor"/>
        </g>
    </symbol>
    <symbol id="zzdsz" width="100%" height="100%" viewBox="0 0 24 24" fill="none" xmlns="http://www.w3.org/2000/svg">
        <g>
        </g>
    </symbol>
</svg>









